<svg xmlns="http://www.w3.org/2000/svg" xmlns:xlink="http://www.w3.org/1999/xlink" version="1.1" x="0px" y="0px" viewBox="0 0 100 125" style="enable-background:new 0 0 100 100;" xml:space="preserve"><path d="M94.1,42.9c1.2,1.2,1.2,3.1,0,4.2l-42,42C51.5,89.7,50.8,90,50,90s-1.5-0.3-2.1-0.9l-42-42c-1.2-1.2-1.2-3.1,0-4.2  c1.2-1.2,3.1-1.2,4.2,0L50,82.8l39.9-39.9C91.1,41.7,92.9,41.7,94.1,42.9z M47.9,57.1c0.6,0.6,1.4,0.9,2.1,0.9s1.5-0.3,2.1-0.9  l42-42c1.2-1.2,1.2-3.1,0-4.2c-1.2-1.2-3.1-1.2-4.2,0L50,50.8L10.1,10.9C9,9.7,7,9.7,5.9,10.9c-1.2,1.2-1.2,3.1,0,4.2L47.9,57.1z"/><text x="0" y="115" fill="#000000" font-size="5px" font-weight="bold" font-family="'Helvetica Neue', Helvetica, Arial-Unicode, Arial, Sans-serif">Created by IconMark</text><text x="0" y="120" fill="#000000" font-size="5px" font-weight="bold" font-family="'Helvetica Neue', Helvetica, Arial-Unicode, Arial, Sans-serif">from the Noun Project</text></svg>